<svg fill="none" height="32" width="34" xmlns="http://www.w3.org/2000/svg"><clipPath id="a"><path d="M0 0h33.455v32H0z"/></clipPath><g clip-path="url(#a)" fill="#00343d"><path d="M19.929 16c0 1.691-1.434 3.063-3.202 3.063S13.525 17.69 13.525 16s1.434-3.063 3.202-3.063S19.93 14.31 19.93 16z"/><path d="M24.215 10.582c-.154-.4-.4-.76-.718-1.057a2.99 2.99 0 00-1.105-.687c-.338-.126-.846-.275-1.783-.316-1.013-.044-1.317-.054-3.881-.054-2.565 0-2.869.01-3.882.053-.936.041-1.445.191-1.783.317a2.989 2.989 0 00-1.105.687 2.84 2.84 0 00-.718 1.056c-.132.324-.288.81-.33 1.707-.047.968-.057 1.259-.057 3.712 0 2.453.01 2.744.056 3.713.043.896.2 1.382.33 1.706.155.399.4.76.72 1.056.31.305.686.54 1.104.687.338.126.847.276 1.783.317 1.013.044 1.317.053 3.881.053 2.566 0 2.87-.01 3.882-.053.936-.041 1.445-.19 1.783-.317a3.113 3.113 0 001.823-1.743c.132-.324.288-.81.331-1.706.046-.97.056-1.26.056-3.713 0-2.453-.01-2.744-.056-3.712-.042-.896-.199-1.383-.33-1.707zm-7.487 10.136c-2.725 0-4.933-2.112-4.933-4.718s2.208-4.718 4.933-4.718c2.723 0 4.932 2.112 4.932 4.718s-2.209 4.718-4.932 4.718zm5.127-8.52c-.637 0-1.153-.493-1.153-1.102s.516-1.103 1.153-1.103c.636 0 1.152.494 1.152 1.103s-.516 1.102-1.152 1.102z"/><path d="M16.727 0C7.49 0 0 7.165 0 16s7.49 16 16.727 16 16.727-7.165 16.727-16-7.49-16-16.727-16zm9.547 19.788c-.046.978-.209 1.646-.446 2.23-.499 1.234-1.519 2.21-2.81 2.687-.61.227-1.308.382-2.33.427-1.025.045-1.352.055-3.96.055-2.61 0-2.936-.01-3.96-.055-1.023-.045-1.721-.2-2.332-.427a4.732 4.732 0 01-1.702-1.06 4.49 4.49 0 01-1.107-1.627c-.238-.584-.4-1.252-.447-2.23-.047-.98-.058-1.293-.058-3.788s.011-2.808.058-3.788c.047-.978.209-1.646.446-2.23a4.487 4.487 0 011.108-1.627 4.73 4.73 0 011.702-1.06c.61-.227 1.309-.382 2.331-.427 1.025-.045 1.352-.055 3.96-.055 2.609 0 2.936.01 3.96.055 1.023.045 1.72.2 2.332.427.64.23 1.222.592 1.701 1.06a4.487 4.487 0 011.108 1.627c.238.584.4 1.252.447 2.23.046.98.057 1.293.057 3.788s-.01 2.808-.058 3.788z"/></g></svg>