<svg fill="none" height="32" width="32" xmlns="http://www.w3.org/2000/svg"><path d="M16 0C7.165 0 0 7.165 0 16s7.165 16 16 16 16-7.165 16-16S24.835 0 16 0zm7.305 12.475c.007.158.01.316.01.475 0 4.853-3.693 10.448-10.448 10.449-2.074 0-4.004-.608-5.63-1.65.288.034.58.05.877.05a7.37 7.37 0 004.561-1.571 3.677 3.677 0 01-3.43-2.551 3.653 3.653 0 001.658-.063 3.673 3.673 0 01-2.946-3.6v-.047c.495.275 1.06.441 1.663.46a3.669 3.669 0 01-1.634-3.057c0-.673.182-1.304.497-1.846a10.426 10.426 0 007.57 3.837 3.673 3.673 0 016.258-3.35 7.366 7.366 0 002.332-.89 3.686 3.686 0 01-1.615 2.03 7.325 7.325 0 002.11-.578 7.46 7.46 0 01-1.833 1.902z" fill="#00343d"/></svg>